<svg width="249" height="88" viewBox="0 0 249 88" fill="none" xmlns="http://www.w3.org/2000/svg">
<mask id="mask0_6_206" style="mask-type:luminance" maskUnits="userSpaceOnUse" x="132" y="0" width="117" height="88">
<path d="M132.085 0H249V88H132.085V0Z" fill="white"/>
</mask>
<g mask="url(#mask0_6_206)">
<mask id="mask1_6_206" style="mask-type:luminance" maskUnits="userSpaceOnUse" x="127" y="-15" width="133" height="111">
<path d="M127.549 13.2704L240 -14.4015L259.567 67.5629L147.117 95.2308L127.549 13.2704Z" fill="white"/>
</mask>
<g mask="url(#mask1_6_206)">
<mask id="mask2_6_206" style="mask-type:luminance" maskUnits="userSpaceOnUse" x="127" y="-15" width="133" height="111">
<path d="M127.549 13.2704L240 -14.4015L259.567 67.5629L147.117 95.2308L127.549 13.2704Z" fill="white"/>
</mask>
<g mask="url(#mask2_6_206)">
<path d="M246.807 24.3304C247.228 25.9492 248.11 26.9125 248.835 27.4561C247.744 28.959 246.646 30.4539 245.539 31.9449C244.335 31.0255 242.378 29.0749 241.524 25.7853C239.492 28.5433 237.441 31.2813 235.362 33.9994C232.988 37.1051 230.582 40.1829 228.141 43.2367C225.697 46.2904 223.216 49.3122 220.689 52.3021C218.161 55.2919 215.59 58.2417 212.952 61.1476C210.314 64.0495 207.614 66.9034 204.818 69.6774C202.023 72.4554 199.133 75.1535 196.074 77.7076C193.003 80.2497 189.79 82.676 186.129 84.6705C184.294 85.6538 182.334 86.5372 180.125 87.0808C179.015 87.3446 177.837 87.5205 176.589 87.5005C175.963 87.4965 175.326 87.4285 174.68 87.3086C174.038 87.1807 173.393 86.9888 172.767 86.733C172.144 86.4652 171.546 86.1375 170.991 85.7497C170.487 85.358 169.979 84.9943 169.53 84.5226C169.058 84.087 168.664 83.5633 168.266 83.0517C168.089 82.7799 167.916 82.5081 167.743 82.2323C167.652 82.0964 167.577 81.9565 167.511 81.8126L167.298 81.3809C166.747 80.2338 166.381 79.0266 166.2 77.8515L166.121 77.4118L166.074 76.9761C166.046 76.6843 166.011 76.3925 165.991 76.1048C165.971 75.5372 165.932 74.9616 165.959 74.406C166.007 72.1716 166.345 70.0572 166.814 68.0266C167.286 65.9961 167.877 64.0415 168.526 62.1269C169.837 58.2977 171.381 54.6364 172.987 51.031C174.597 47.4296 176.274 43.8882 177.936 40.3667C179.601 36.8413 181.247 33.3358 182.782 29.8104C184.306 26.289 185.743 22.7436 186.775 19.1941C187.286 17.4234 187.692 15.6527 187.885 13.946L187.936 13.3184L187.964 13.0026L187.972 12.6989C187.972 12.495 187.983 12.2872 187.983 12.0873L187.956 11.5037C187.901 10.7363 187.775 10.0248 187.562 9.42124C187.334 8.82568 187.034 8.34203 186.637 7.93033C186.538 7.8264 186.448 7.71448 186.322 7.63054L186.149 7.49065C186.09 7.44668 186.042 7.39471 185.964 7.35075C185.818 7.26281 185.672 7.17088 185.531 7.07495L185.078 6.84312C184.464 6.55533 183.794 6.35547 183.082 6.24355C182.369 6.12764 181.601 6.13163 180.818 6.18759C179.239 6.30751 177.582 6.76318 175.94 7.36274C174.298 7.98629 172.664 8.76971 171.062 9.65307C167.861 11.4318 164.774 13.5902 161.794 15.8965C158.81 18.2108 155.924 20.697 153.113 23.2832C150.306 25.8653 147.569 28.5473 144.904 31.3053C143.573 32.6803 142.258 34.0753 140.959 35.4903C140.309 36.1938 139.668 36.9053 139.03 37.6167C138.4 38.3282 137.754 39.0597 137.16 39.7552L133.01 36.1338C133.675 35.3544 134.317 34.6269 134.975 33.8875C135.632 33.152 136.294 32.4245 136.959 31.701C138.286 30.2501 139.636 28.8231 141.002 27.4122C143.735 24.5862 146.542 21.8322 149.439 19.1622C152.341 16.4961 155.333 13.918 158.471 11.4837C161.613 9.05351 164.888 6.75518 168.444 4.77662C170.227 3.79333 172.081 2.89399 174.05 2.15053C176.026 1.42705 178.113 0.831488 180.385 0.647621C181.519 0.56768 182.688 0.559685 183.881 0.747549C185.07 0.931414 186.271 1.27916 187.405 1.81477C187.68 1.95467 187.964 2.09457 188.235 2.24646L189.031 2.75009C189.16 2.82604 189.294 2.94195 189.424 3.04188L189.818 3.35765C190.086 3.5575 190.322 3.80932 190.558 4.05314C191.511 5.04043 192.235 6.25155 192.692 7.48665C193.133 8.72575 193.334 9.95685 193.416 11.14L193.456 12.0194C193.456 12.3071 193.444 12.5909 193.44 12.8747L193.428 13.3024L193.397 13.7181L193.326 14.5495C193.078 16.7319 192.598 18.7824 192.027 20.761C190.869 24.7181 189.361 28.4154 187.786 32.0528C186.208 35.6821 184.538 39.2356 182.873 42.765C181.208 46.2944 179.542 49.8039 177.971 53.3253C176.404 56.8428 174.916 60.3802 173.7 63.9416C173.093 65.7243 172.554 67.511 172.144 69.2897C171.731 71.0644 171.463 72.8351 171.428 74.5099C171.404 74.9336 171.444 75.3333 171.448 75.741C171.463 75.9409 171.491 76.1327 171.507 76.3286L171.538 76.6244L171.589 76.9042C171.704 77.6636 171.928 78.3391 172.215 78.9467L172.326 79.1745C172.361 79.2505 172.396 79.3264 172.444 79.3904C172.534 79.5263 172.621 79.6622 172.707 79.8021C172.916 80.0499 173.093 80.3177 173.345 80.5335C173.554 80.7774 173.849 80.9652 174.101 81.1811C174.341 81.3449 174.593 81.4808 174.857 81.5968C175.125 81.7047 175.408 81.7886 175.708 81.8526C176.015 81.9045 176.334 81.9445 176.672 81.9485C177.353 81.9565 178.097 81.8566 178.861 81.6767C180.397 81.301 181.999 80.6055 183.562 79.7621C186.7 78.0593 189.712 75.813 192.601 73.4107C195.495 71.0005 198.283 68.3984 200.991 65.7083C203.704 63.0143 206.342 60.2243 208.929 57.3784C211.515 54.5324 214.047 51.6266 216.539 48.6847C219.027 45.7388 221.48 42.753 223.893 39.7352C226.307 36.7174 228.689 33.6676 231.039 30.5938C233.094 27.9038 235.13 25.1898 237.138 22.4598C233.803 22.5397 231.429 21.1407 230.224 20.2214C231.295 18.7824 232.354 17.3395 233.409 15.8925C234.134 16.4361 235.295 17.0197 236.929 16.9638C238.555 16.9118 240.673 16.2083 243.228 14.1898L247.52 17.2595C246.425 20.4532 246.386 22.7076 246.807 24.3304Z" fill="#9CFF1E"/>
</g>
</g>
</g>
<path d="M24.925 34.1135H37.6654V70.9667H24.925V34.1135ZM31.2873 30.0365C28.9645 30.0365 27.0904 29.381 25.6652 28.0699C24.236 26.7509 23.5234 25.1121 23.5234 23.1615C23.5234 21.2109 24.236 19.5801 25.6652 18.2691C27.0904 16.958 28.9645 16.3025 31.2873 16.3025C33.6063 16.3025 35.4803 16.926 36.9095 18.1731C38.3347 19.4122 39.0512 21.0031 39.0512 22.9537C39.0512 25.0002 38.3347 26.6949 36.9095 28.038C35.4803 29.373 33.6063 30.0365 31.2873 30.0365Z" fill="black"/>
<path d="M64.4519 33.5059C68.9559 33.5059 72.578 34.8649 75.3182 37.5829C78.0663 40.3009 79.4443 44.4059 79.4443 49.8939V70.9666H66.7196V51.9884C66.7196 46.9601 64.7354 44.4419 60.7668 44.4419C58.5699 44.4419 56.8179 45.1734 55.5069 46.6323C54.1919 48.0833 53.5383 50.2577 53.5383 53.1556V70.9666H40.798V34.1134H52.9241V38.1265C54.3494 36.6236 56.0462 35.4804 58.0108 34.689C59.9833 33.9016 62.129 33.5059 64.4519 33.5059Z" fill="black"/>
<path d="M92.9053 34.0491H78.5114V23.3689H120.512V34.0491H106.181V70.9663H92.9053V34.0491Z" fill="black"/>
<path d="M131.888 38.5262C133.187 36.8554 134.872 35.6003 136.943 34.7689C139.021 33.9296 141.399 33.5059 144.077 33.5059V45.1294C142.919 44.9935 141.959 44.9216 141.195 44.9216C138.474 44.9216 136.344 45.673 134.801 47.1759C133.266 48.6708 132.502 50.9572 132.502 54.0349V70.9666H119.761V34.1134H131.888V38.5262Z" fill="black"/>
<path d="M144.341 34.1135H157.081V70.9667H144.341V34.1135ZM150.703 30.0365C148.38 30.0365 146.506 29.381 145.081 28.0699C143.652 26.7509 142.939 25.1121 142.939 23.1615C142.939 21.2109 143.652 19.5801 145.081 18.2691C146.506 16.958 148.38 16.3025 150.703 16.3025C153.022 16.3025 154.896 16.926 156.325 18.1731C157.751 19.4122 158.467 21.0031 158.467 22.9537C158.467 25.0002 157.751 26.6949 156.325 28.038C154.896 29.373 153.022 30.0365 150.703 30.0365Z" fill="black"/>
<path d="M183.065 33.5059C186.36 33.5059 189.356 34.2893 192.057 35.8562C194.766 37.415 196.911 39.6294 198.498 42.5073C200.081 45.3852 200.876 48.7268 200.876 52.532C200.876 56.3492 200.081 59.6948 198.498 62.5727C196.911 65.4506 194.766 67.673 192.057 69.2399C189.356 70.7987 186.36 71.5742 183.065 71.5742C178.821 71.5742 175.45 70.2871 172.954 67.705V84.157H160.214V34.1134H172.34V37.7907C174.71 34.9368 178.285 33.5059 183.065 33.5059ZM180.388 61.3096C182.612 61.3096 184.439 60.5342 185.868 58.9753C187.293 57.4085 188.01 55.262 188.01 52.532C188.01 49.814 187.293 47.6796 185.868 46.1207C184.439 44.5538 182.612 43.7704 180.388 43.7704C178.151 43.7704 176.317 44.5538 174.891 46.1207C173.462 47.6796 172.75 49.814 172.75 52.532C172.75 55.262 173.462 57.4085 174.891 58.9753C176.317 60.5342 178.151 61.3096 180.388 61.3096Z" fill="black"/>
<path d="M214.868 71.5742C211.833 71.5742 208.841 71.2224 205.892 70.5189C202.951 69.8155 200.589 68.9001 198.805 67.7689L202.616 58.9274C204.262 59.9746 206.226 60.806 208.506 61.4216C210.782 62.0291 213.042 62.3329 215.278 62.3329C217.325 62.3329 218.782 62.1211 219.656 61.6934C220.526 61.2577 220.963 60.6341 220.963 59.8227C220.963 59.0033 220.435 58.4237 219.388 58.08C218.337 57.7402 216.679 57.4085 214.412 57.0887C211.502 56.729 209.03 56.2533 206.994 55.6657C204.967 55.0822 203.215 53.995 201.734 52.4041C200.262 50.8173 199.53 48.5949 199.53 45.737C199.53 43.3827 200.222 41.2882 201.608 39.4535C202.994 37.6109 205.014 36.1599 207.671 35.1047C210.325 34.0415 213.506 33.5059 217.215 33.5059C219.849 33.5059 222.459 33.7777 225.042 34.3213C227.632 34.8649 229.802 35.6323 231.546 36.6236L227.735 45.4012C224.522 43.5905 221.034 42.6832 217.278 42.6832C215.27 42.6832 213.797 42.923 212.853 43.4027C211.916 43.8743 211.451 44.4899 211.451 45.2573C211.451 46.1207 211.963 46.7242 212.994 47.064C214.022 47.4078 215.719 47.7595 218.081 48.1192C221.073 48.5789 223.55 49.1025 225.514 49.6861C227.487 50.2737 229.199 51.3489 230.648 52.9157C232.097 54.4826 232.821 56.669 232.821 59.471C232.821 61.7853 232.128 63.8638 230.743 65.7064C229.357 67.5411 227.313 68.9801 224.617 70.0233C221.916 71.0546 218.668 71.5742 214.868 71.5742Z" fill="black"/>
<mask id="mask3_6_206" style="mask-type:luminance" maskUnits="userSpaceOnUse" x="0" y="40" width="19" height="20">
<path d="M0 40.4187H18.5397V59.245H0V40.4187Z" fill="white"/>
</mask>
<g mask="url(#mask3_6_206)">
<path d="M18.4768 47.2457V52.394C12.331 54.2207 11.4137 57.4543 11.4137 59.221H6.13011C6.13011 57.7461 6.46476 55.076 8.48448 52.5019H0.00402832V47.1378H8.48448C6.46476 44.5637 6.13011 41.8936 6.13011 40.4187H11.4137C11.4137 42.1854 12.331 45.4191 18.4768 47.2457Z" fill="#9CFF1E"/>
</g>
</svg>
